Coordinates
version=1
nRows=34
nColumns=33
inDegrees=yes

Units are S.I. units (second, meters, Newtons, ...)
Angles are in degrees.

endheader
time	ground_thorax_rot_x	ground_thorax_rot_y	ground_thorax_rot_z	ground_thorax_tx	ground_thorax_ty	ground_thorax_tz	clav_prot_r	clav_elev_r	scapula_abduction_r	scapula_elevation_r	scapula_upward_rot_r	scapula_winging_r	shoulder_elv_r	plane_of_elev_r	axial_rot_r	elbow_flexion_r	pro_sup_r	wrist_flex_r	wrist_dev_r	clav_prot_l	clav_elev_l	scapula_abduction_l	scapula_elevation_l	scapula_upward_rot_l	scapula_winging_l	shoulder_elv_l	plane_of_elev_l	axial_rot_l	elbow_flexion_l	pro_sup_l	wrist_flex_l	wrist_dev_l	
2.6300	29.177865	30.327615	38.279137	-14.492454	794.200360	-43.108080	2.387322	42.897403	38.907152	45.000000	3.640088	-2282.464954	-2266.855979	144.219023	-180.000000	1427.720861	70.085735	19.893594	13.837963	-10.215197	-45.000000	-37.933337	45.000000	-45.000000	-2055.652862	437.444136	23.846793	19.944783	1430.608018	-312.107950	11.541925	-17.076002	
2.6400	29.223613	30.129019	38.050609	-16.664636	796.008702	-43.283232	2.403907	42.808873	38.945368	45.000000	3.872235	-2282.499681	-2266.661358	144.186680	-180.000000	1427.643952	69.870282	19.942640	13.935633	-10.114631	-45.000000	-38.049060	45.000000	-45.000000	-2055.563912	437.548419	23.901867	20.193946	1430.563937	-312.375779	11.640705	-17.136042	
2.6500	29.271869	29.919864	37.822453	-18.785838	797.886853	-43.469516	2.418314	42.717323	38.992516	45.000000	4.117037	-2282.534075	-2266.462713	144.157463	-180.000000	1427.567888	69.639495	19.998566	14.038347	-10.022887	-45.000000	-38.167440	45.000000	-45.000000	-2055.480007	437.649669	23.955353	20.464200	1430.519973	-312.676076	11.744683	-17.202466	
2.6600	29.319534	29.702632	37.594337	-20.853658	799.829897	-43.666685	2.430829	42.623615	39.045831	45.000000	4.373211	-2282.567584	-2266.260902	144.130295	-180.000000	1427.486624	69.396295	20.059258	14.146035	-9.936301	-45.000000	-38.287354	45.000000	-45.000000	-2055.401219	437.751524	24.012436	20.755130	1430.476921	-313.008655	11.852850	-17.273658	
2.6700	29.367886	29.477011	37.371368	-22.866569	801.832806	-43.874429	2.441881	42.527607	39.103565	45.000000	4.636055	-2282.596093	-2266.056823	144.102670	-180.000000	1427.403893	69.143783	20.127398	14.257028	-9.852983	-45.000000	-38.405964	45.000000	-45.000000	-2055.324404	437.852154	24.071184	21.059818	1430.433640	-313.372028	11.965563	-17.349549	
2.6800	29.412616	29.248845	37.157207	-24.823946	803.890368	-44.092413	2.451529	42.430068	39.159852	45.000000	4.904358	-2282.621938	-2265.851973	144.070172	-180.000000	1427.313038	68.887213	20.197353	14.369438	-9.763928	-45.000000	-38.520453	45.000000	-45.000000	-2055.248419	437.956023	24.135549	21.376873	1430.389913	-313.763749	12.080781	-17.426598	
2.6900	29.455608	29.018082	36.956074	-26.726508	805.997416	-44.320341	2.462268	42.332077	39.214739	45.000000	5.173502	-2282.642048	-2265.645893	144.032782	-180.000000	1427.219889	68.630147	20.271110	14.480745	-9.674838	-45.000000	-38.626024	45.000000	-45.000000	-2055.173723	438.061999	24.201441	21.700047	1430.345951	-314.180053	12.197560	-17.504244	
2.7000	29.492548	28.788852	36.769960	-28.575953	808.148529	-44.557833	2.472758	42.234077	39.264095	45.000000	5.445663	-2282.658244	-2265.438627	143.988799	-180.000000	1427.118083	68.377672	20.342962	14.589220	-9.577509	-45.000000	-38.722146	45.000000	-45.000000	-2055.098289	438.172823	24.273677	22.027647	1430.302575	-314.615634	12.313458	-17.579603	
2.7100	29.532429	28.556714	36.587738	-30.374917	810.338124	-44.804289	2.483292	42.137993	39.316236	45.000000	5.715782	-2282.666852	-2265.226892	143.951161	-180.000000	1427.024895	68.130159	20.425562	14.692697	-9.489881	-45.000000	-38.810459	45.000000	-45.000000	-2055.027562	438.284480	24.348702	22.358800	1430.260658	-315.062831	12.428859	-17.656726	
2.7200	29.566894	28.327829	36.417835	-32.126142	812.559929	-45.058590	2.492470	42.040694	39.360823	45.000000	5.984245	-2282.669631	-2265.014062	143.913448	-180.000000	1426.932687	67.890231	20.509760	14.788794	-9.388981	-45.000000	-38.899274	45.000000	-45.000000	-2054.952298	438.395417	24.431627	22.696773	1430.219615	-315.514006	12.541087	-17.732362	
2.7300	29.593620	28.103267	36.262874	-33.832371	814.807478	-45.319008	2.501082	41.945362	39.398702	45.000000	6.251091	-2282.667655	-2264.798285	143.877763	-180.000000	1426.843945	67.658297	20.592311	14.875896	-9.284030	-45.000000	-38.993697	45.000000	-45.000000	-2054.874871	438.506108	24.514848	23.033525	1430.180096	-315.964051	12.648264	-17.805711	
2.7400	29.603294	27.888766	36.135143	-35.495703	817.074008	-45.583172	2.510271	41.850023	39.419956	45.000000	6.514848	-2282.661548	-2264.583626	143.834839	-180.000000	1426.749070	67.435116	20.663385	14.953751	-9.157646	-45.000000	-39.097095	45.000000	-45.000000	-2054.787956	438.618351	24.601756	23.368109	1430.141543	-316.409602	12.748500	-17.873728	
2.7500	29.605523	27.679358	36.022718	-37.117615	819.353078	-45.848335	2.519797	41.757622	39.434039	45.000000	6.772402	-2282.648545	-2264.366407	143.794334	-180.000000	1426.658436	67.215765	20.731901	15.023133	-9.028110	-45.000000	-39.206597	45.000000	-45.000000	-2054.699937	438.730841	24.687633	23.698037	1430.104728	-316.848371	12.842576	-17.940450	
2.7600	29.596903	27.477486	35.929263	-38.698621	821.638482	-46.111688	2.529968	41.663561	39.434554	45.000000	7.022308	-2282.628366	-2264.150950	143.749967	-180.000000	1426.565222	66.996048	20.792984	15.084775	-8.877698	-45.000000	-39.322625	45.000000	-45.000000	-2054.603618	438.842376	24.780069	24.028118	1430.069957	-317.279071	12.930158	-18.005225	
2.7700	29.584086	27.281188	35.846033	-40.238632	823.924825	-46.370834	2.538185	41.567091	39.425490	45.000000	7.264124	-2282.603108	-2263.936863	143.706529	-180.000000	1426.477842	66.768757	20.849382	15.137046	-8.709171	-45.000000	-39.445029	45.000000	-45.000000	-2054.503698	438.951050	24.877082	24.350023	1430.034867	-317.703617	13.013045	-18.068928	
2.7800	29.573820	27.085518	35.765796	-41.736982	826.207521	-46.624091	2.546889	41.466181	39.410263	45.000000	7.494314	-2282.568539	-2263.725532	143.667288	-180.000000	1426.400996	66.526097	20.908164	15.182034	-8.527274	-45.000000	-39.570160	45.000000	-45.000000	-2054.400066	439.054283	24.982063	24.674475	1430.000201	-318.122185	13.092715	-18.134214	
2.7900	29.575615	26.886103	35.673887	-43.192527	828.482624	-46.870601	2.553783	41.362599	39.396335	45.000000	7.711505	-2282.524745	-2263.514486	143.640971	-180.000000	1426.340859	66.260792	20.977355	15.221039	-8.343678	-45.000000	-39.696358	45.000000	-45.000000	-2054.300084	439.150758	25.093352	25.005023	1429.966575	-318.535011	13.170452	-18.204157	
2.8000	29.586225	26.682213	35.576083	-44.603767	830.746726	-47.110187	2.565431	41.260096	39.383965	45.000000	7.913529	-2282.468461	-2263.303563	143.624577	-180.000000	1426.287624	65.971158	21.053761	15.258242	-8.171205	-45.000000	-39.819126	45.000000	-45.000000	-2054.203230	439.244315	25.207431	25.351253	1429.938162	-318.941427	13.244072	-18.277775	
2.8100	29.601293	26.477506	35.477913	-45.968925	832.996668	-47.343020	2.580909	41.162432	39.371866	45.000000	8.101842	-2282.402898	-2263.091309	143.615578	-180.000000	1426.235627	65.658591	21.132081	15.293909	-8.011948	-45.000000	-39.939885	45.000000	-45.000000	-2054.111405	439.337601	25.318371	25.705857	1429.916278	-319.343948	13.312283	-18.352783	
2.8200	29.623173	26.268192	35.380453	-47.286240	835.229657	-47.569250	2.603848	41.073459	39.366100	45.000000	8.272841	-2282.323407	-2262.876718	143.614762	-180.000000	1426.182986	65.325578	21.217640	15.331111	-7.881240	-45.000000	-40.050833	45.000000	-45.000000	-2054.027416	439.432394	25.420334	26.071093	1429.904985	-319.744016	13.374532	-18.431170	
2.8300	29.651837	26.056890	35.280742	-48.553758	837.442550	-47.788634	2.629855	40.991996	39.365664	45.000000	8.427200	-2282.233330	-2262.659649	143.621871	-180.000000	1426.130955	64.975910	21.312707	15.368351	-7.769973	-45.000000	-40.154180	45.000000	-45.000000	-2053.951602	439.526646	25.516382	26.443204	1429.904395	-320.143304	13.431466	-18.513636	
2.8400	29.686901	25.842991	35.183274	-49.769853	839.632296	-48.000443	2.662480	40.918537	39.370816	45.000000	8.564376	-2282.132330	-2262.443122	143.633772	-180.000000	1426.080532	64.615935	21.417856	15.405484	-7.684983	-45.000000	-40.246856	45.000000	-45.000000	-2053.882428	439.622263	25.603225	26.819053	1429.910503	-320.540486	13.483965	-18.598818	
2.8500	29.728277	25.628726	35.088221	-50.933166	841.795286	-48.203490	2.698290	40.852202	39.380249	45.000000	8.684328	-2282.023742	-2262.228408	143.649239	-180.000000	1426.035967	64.252154	21.534168	15.440048	-7.620578	-45.000000	-40.332159	45.000000	-45.000000	-2053.820690	439.716241	25.679397	27.193649	1429.923728	-320.934884	13.531964	-18.687611	
2.8600	29.774858	25.414594	34.998278	-52.043170	843.927828	-48.396429	2.736415	40.790970	39.391622	45.000000	8.790264	-2281.908605	-2262.018620	143.665697	-180.000000	1425.997371	63.891659	21.660063	15.471421	-7.569675	-45.000000	-40.409018	45.000000	-45.000000	-2053.762108	439.809029	25.747430	27.563947	1429.939875	-321.322831	13.576053	-18.778439	
2.8700	29.821137	25.206186	34.912089	-53.100112	846.025627	-48.578007	2.770561	40.730874	39.398677	45.000000	8.886436	-2281.792618	-2261.815946	143.683703	-180.000000	1425.965137	63.541022	21.790593	15.496809	-7.512181	-45.000000	-40.485740	45.000000	-45.000000	-2053.703159	439.898122	25.815435	27.924804	1429.958413	-321.701446	13.615505	-18.869462	
2.8800	29.866822	25.004141	34.829808	-54.105382	848.084347	-48.747353	2.804508	40.672827	39.401437	45.000000	8.972428	-2281.676750	-2261.622058	143.702547	-180.000000	1425.938261	63.208652	21.923848	15.517205	-7.455968	-45.000000	-40.560728	45.000000	-45.000000	-2053.645508	439.986157	25.883877	28.274439	1429.974897	-322.064718	13.651131	-18.959258	
2.8900	29.910757	24.809477	34.752377	-55.061222	850.099255	-48.904006	2.830633	40.613429	39.396229	45.000000	9.053607	-2281.563814	-2261.439735	143.721103	-180.000000	1425.920343	62.901645	22.057910	15.529416	-7.380001	-45.000000	-40.640023	45.000000	-45.000000	-2053.583990	440.067116	25.955026	28.606573	1429.987235	-322.408069	13.683244	-19.047345	
2.9000	29.953909	24.622684	34.675243	-55.970645	852.065687	-49.047844	2.848240	40.552399	39.383534	45.000000	9.132314	-2281.456454	-2261.268907	143.739663	-180.000000	1425.908372	62.628197	22.192314	15.533626	-7.282951	-45.000000	-40.722782	45.000000	-45.000000	-2053.519152	440.141962	26.032185	28.918161	1429.993993	-322.726065	13.712858	-19.134215	
2.9100	29.997116	24.443803	34.596605	-56.837027	853.978925	-49.178843	2.854816	40.489477	39.363890	45.000000	9.208944	-2281.356530	-2261.110191	143.760088	-180.000000	1425.906044	62.394923	22.329078	15.527765	-7.159441	-45.000000	-40.812023	45.000000	-45.000000	-2053.450318	440.207476	26.114477	29.204702	1429.996218	-323.013592	13.740043	-19.221153	
2.9200	30.052679	24.263017	34.505456	-57.663830	855.834331	-49.296872	2.859435	40.438538	39.356452	45.000000	9.274366	-2281.258267	-2260.956959	143.789072	-180.000000	1425.910005	62.208733	22.481548	15.518930	-7.064023	-45.000000	-40.888408	45.000000	-45.000000	-2053.397686	440.270731	26.183972	29.474440	1430.003137	-323.263449	13.763717	-19.317390	
2.9300	30.125131	24.075702	34.395777	-58.454386	857.627278	-49.401595	2.858624	40.399400	39.364730	45.000000	9.330666	-2281.162993	-2260.809903	143.829972	-180.000000	1425.927800	62.071309	22.656833	15.504107	-6.987973	-45.000000	-40.946327	45.000000	-45.000000	-2053.359624	440.329468	26.242190	29.724085	1430.011813	-323.468233	13.785170	-19.425392	
2.9400	30.209668	23.886103	34.273294	-59.211649	859.352713	-49.492554	2.855282	40.371170	39.384297	45.000000	9.380255	-2281.071121	-2260.669640	143.876204	-180.000000	1425.947936	61.985849	22.847291	15.486727	-6.939902	-45.000000	-40.981964	45.000000	-45.000000	-2053.335654	440.386834	26.289128	29.949971	1430.026913	-323.622428	13.803236	-19.545192	
2.9500	30.297146	23.699473	34.141656	-59.938352	861.005313	-49.569469	2.844528	40.345971	39.402285	45.000000	9.434684	-2280.989592	-2260.543237	143.926438	-180.000000	1425.975858	61.949715	23.048181	15.462106	-6.884950	-45.000000	-41.007616	45.000000	-45.000000	-2053.311380	440.440627	26.340073	30.140172	1430.033313	-323.720660	13.820598	-19.670639	
2.9600	30.378970	23.527757	34.021487	-60.636765	862.578917	-49.632565	2.829037	40.322230	39.406840	45.000000	9.495210	-2280.916102	-2260.429636	143.965013	-180.000000	1425.998203	61.964393	23.244191	15.435164	-6.834776	-45.000000	-41.029285	45.000000	-45.000000	-2053.282667	440.487155	26.385416	30.296214	1430.040159	-323.760291	13.833130	-19.800194	
